<?xml version="1.0" encoding="UTF-8"?>
<svg version="1.1" xmlns="http://www.w3.org/2000/svg" width="50" height="50">
<path d="M0 0 C1.9375 1.4375 1.9375 1.4375 3 3 C3 3.66 3 4.32 3 5 C3.598125 5.103125 4.19625 5.20625 4.8125 5.3125 C7.5017689 6.1576988 8.46031875 6.61349407 10 9 C10.72018676 13.24910188 10.94576961 15.54775267 8.5703125 19.1953125 C1.45848577 27.46700797 1.45848577 27.46700797 -3 28.43359375 C-6.7058609 28.44083176 -8.44681202 28.41489099 -11.5 26.125 C-13 24 -13 24 -13 22 C-13.78375 21.896875 -14.5675 21.79375 -15.375 21.6875 C-18 21 -18 21 -20 18 C-20.71651149 14.59657041 -20.99741992 13.2240925 -20 10 C-14.18097863 2.59009022 -9.6822139 -2.07476012 0 0 Z M-15 11 C-16.02649583 13.75145037 -16.02649583 13.75145037 -16 16 C-15.01 16.495 -15.01 16.495 -14 17 C-13.443125 16.05125 -12.88625 15.1025 -12.3125 14.125 C-9.93429698 10.91121213 -8.75965574 10.04434882 -5 9 C-5.41927628 11.93493396 -5.87924008 12.88989537 -8.125 14.9375 C-10.30543568 16.8593825 -10.30543568 16.8593825 -9.9375 19.625 C-9.13344454 22.32289761 -9.13344454 22.32289761 -6 24 C-2.27225922 23.72668296 -0.29581467 21.78678867 2.3125 19.25 C3.03050781 18.57453125 3.74851562 17.8990625 4.48828125 17.203125 C6.30522152 15.06134863 6.30522152 15.06134863 5.73046875 12.234375 C5.48941406 11.49703125 5.24835937 10.7596875 5 10 C4.401875 10.763125 3.80375 11.52625 3.1875 12.3125 C2.1046875 13.6428125 2.1046875 13.6428125 1 15 C0.505 15.61875 0.01 16.2375 -0.5 16.875 C-0.995 17.24625 -1.49 17.6175 -2 18 C-4.09375 17.5703125 -4.09375 17.5703125 -6 17 C-5.55527344 16.54109375 -5.11054688 16.0821875 -4.65234375 15.609375 C-4.08644531 14.99578125 -3.52054688 14.3821875 -2.9375 13.75 C-2.36902344 13.14671875 -1.80054688 12.5434375 -1.21484375 11.921875 C0.22286192 10.07899853 0.22286192 10.07899853 -0.19140625 7.890625 C-0.94303615 5.80890694 -0.94303615 5.80890694 -3 4 C-8.59144959 2.56219868 -11.87088762 6.91781566 -15 11 Z " fill="#22D6F9" transform="translate(30,12)"/>
<path d="M0 0 C5.49152542 0.61016949 5.49152542 0.61016949 7.875 2.4375 C9 4 9 4 9 6 C9.598125 6.103125 10.19625 6.20625 10.8125 6.3125 C13.5017689 7.1576988 14.46031875 7.61349407 16 10 C16.72018676 14.24910188 16.94576961 16.54775267 14.5703125 20.1953125 C11.68092003 23.55593636 8.69076543 26.52169676 5 29 C4.34 29 3.68 29 3 29 C2.63204305 25.7171341 2.6768068 24.41336988 4.75 21.76171875 C5.4925 21.07722656 6.235 20.39273437 7 19.6875 C7.7425 18.99011719 8.485 18.29273437 9.25 17.57421875 C9.8275 17.05472656 10.405 16.53523438 11 16 C10.67 15.01 10.34 14.02 10 13 C8.02 15.31 6.04 17.62 4 20 C2.35 19.67 0.7 19.34 -1 19 C-0.55527344 18.46890625 -0.11054688 17.9378125 0.34765625 17.390625 C0.91355469 16.68421875 1.47945312 15.9778125 2.0625 15.25 C2.63097656 14.55390625 3.19945312 13.8578125 3.78515625 13.140625 C5.20106988 11.09863183 5.20106988 11.09863183 4.87109375 8.859375 C4.02980694 6.64566052 4.02980694 6.64566052 1 5 C0.3125 2.375 0.3125 2.375 0 0 Z " fill="#B81EF2" transform="translate(24,11)"/>
<path d="M0 0 C0.99 0.33 1.98 0.66 3 1 C2.58072372 3.93493396 2.12075992 4.88989537 -0.125 6.9375 C-2.28331982 8.8593825 -2.28331982 8.8593825 -2.0625 11.625 C-1.19000463 14.24032633 -1.19000463 14.24032633 1.5625 15.3125 C2.366875 15.539375 3.17125 15.76625 4 16 C4 17.32 4 18.64 4 20 C-1.625 20.25 -1.625 20.25 -5 18 C-5.46875 14.8828125 -5.46875 14.8828125 -5.5 11.125 C-5.5309375 9.89007813 -5.561875 8.65515625 -5.59375 7.3828125 C-5 4 -5 4 -2.65625 1.4921875 C-1.7796875 0.99976562 -0.903125 0.50734375 0 0 Z " fill="#3EAAF9" transform="translate(23,20)"/>
<path d="M0 0 C2.875 0.3125 2.875 0.3125 6 1 C8.44646911 4.66970366 8.14860884 6.17442537 7.8125 10.5 C7.73644531 11.6446875 7.66039062 12.789375 7.58203125 13.96875 C7 17 7 17 5.6171875 18.92578125 C4 20 4 20 1.3125 19.6875 C0.549375 19.460625 -0.21375 19.23375 -1 19 C-0.55527344 18.46890625 -0.11054688 17.9378125 0.34765625 17.390625 C0.91355469 16.68421875 1.47945312 15.9778125 2.0625 15.25 C2.63097656 14.55390625 3.19945312 13.8578125 3.78515625 13.140625 C5.20106988 11.09863183 5.20106988 11.09863183 4.87109375 8.859375 C4.02980694 6.64566052 4.02980694 6.64566052 1 5 C0.3125 2.375 0.3125 2.375 0 0 Z " fill="#8659F4" transform="translate(24,11)"/>
<path d="M0 0 C1.31065245 2.62130489 1.415469 4.09171697 1 7 C-3.10810811 11 -3.10810811 11 -6 11 C-6.375 8.875 -6.375 8.875 -6 6 C-4.20659643 3.76086748 -2.16547337 1.87545461 0 0 Z " fill="#9F42EF" transform="translate(33,29)"/>
<path d="M0 0 C0.66 0.33 1.32 0.66 2 1 C2 2.32 2 3.64 2 5 C-0.25660504 6.60337726 -2.53164435 7.76582217 -5 9 C-5.6875 6.6875 -5.6875 6.6875 -6 4 C-4.18682851 1.46155991 -3.01532925 1.00510975 0 0 Z " fill="#44A3F8" transform="translate(23,11)"/>
<path d="M0 0 C0.66 0 1.32 0 2 0 C2 0.66 2 1.32 2 2 C2.99 2.33 3.98 2.66 5 3 C4.5504955 4.31554985 4.09010284 5.62738358 3.625 6.9375 C3.36976562 7.66839844 3.11453125 8.39929688 2.8515625 9.15234375 C2 11 2 11 0 12 C0 8.04 0 4.08 0 0 Z " fill="#A03DEF" transform="translate(31,15)"/>
<path d="M0 0 C0.99 0 1.98 0 3 0 C2.67 3.3 2.34 6.6 2 10 C1.01 9.67 0.02 9.34 -1 9 C-1.09765625 2.84765625 -1.09765625 2.84765625 -1 1 C-0.67 0.67 -0.34 0.34 0 0 Z " fill="#0EEEFA" transform="translate(11,21)"/>
<path d="M0 0 C0.99 0.33 1.98 0.66 3 1 C3.1953125 7.0546875 3.1953125 7.0546875 3 9 C2.34 9.66 1.68 10.32 1 11 C0 10 0 10 -0.09765625 7.71484375 C-0.08605469 6.79832031 -0.07445312 5.88179687 -0.0625 4.9375 C-0.05347656 4.01839844 -0.04445312 3.09929688 -0.03515625 2.15234375 C-0.02355469 1.44207031 -0.01195312 0.73179688 0 0 Z " fill="#C20CED" transform="translate(37,20)"/>
<path d="M0 0 C0.99 0.33 1.98 0.66 3 1 C2.60196439 3.88575819 2.20990931 4.82189513 -0.0625 6.75 C-0.701875 7.1625 -1.34125 7.575 -2 8 C-2.33 6.02 -2.66 4.04 -3 2 C-2.01 1.34 -1.02 0.68 0 0 Z " fill="#5389F6" transform="translate(23,20)"/>
<path d="M0 0 C0.33 0 0.66 0 1 0 C1 3.63 1 7.26 1 11 C0.67 10.34 0.34 9.68 0 9 C-2.02463255 8.34786708 -2.02463255 8.34786708 -4 8 C-3.34 8 -2.68 8 -2 8 C-1.7834375 6.576875 -1.7834375 6.576875 -1.5625 5.125 C-1 2 -1 2 0 0 Z " fill="#3FC0F2" transform="translate(17,25)"/>
<path d="M0 0 C2.475 0.495 2.475 0.495 5 1 C5 2.98 5 4.96 5 7 C3.0625 6.3125 3.0625 6.3125 1 5 C0.25 2.375 0.25 2.375 0 0 Z " fill="#6E65F3" transform="translate(24,11)"/>
<path d="M0 0 C0.185625 0.9590625 0.185625 0.9590625 0.375 1.9375 C0.684375 2.9584375 0.684375 2.9584375 1 4 C1.66 4.33 2.32 4.66 3 5 C1.68 5.99 0.36 6.98 -1 8 C-1.93065133 5.39417629 -2.14917407 4.35801776 -1.0625 1.75 C-0.711875 1.1725 -0.36125 0.595 0 0 Z " fill="#B02EF2" transform="translate(35,27)"/>
<path d="M0 0 C2.475 0.495 2.475 0.495 5 1 C5 2.32 5 3.64 5 5 C3.68 5 2.36 5 1 5 C0.67 3.35 0.34 1.7 0 0 Z " fill="#656EF8" transform="translate(22,35)"/>
<path d="M0 0 C0.66 1.32 1.32 2.64 2 4 C1.01 5.485 1.01 5.485 0 7 C-0.66 7 -1.32 7 -2 7 C-2.125 4.625 -2.125 4.625 -2 2 C-1.34 1.34 -0.68 0.68 0 0 Z " fill="#8957F2" transform="translate(29,33)"/>
<path d="M0 0 C2.5654594 2.5654594 2.54046087 4.47686668 3 8 C0.525 7.01 0.525 7.01 -2 6 C-1.34 5.67 -0.68 5.34 0 5 C0 3.35 0 1.7 0 0 Z " fill="#5497F1" transform="translate(20,32)"/>
</svg>
